<?xml version="1.0" encoding="UTF-8" standalone="no"?>
<svg
   xmlns:dc="http://purl.org/dc/elements/1.1/"
   xmlns:cc="http://creativecommons.org/ns#"
   xmlns:rdf="http://www.w3.org/1999/02/22-rdf-syntax-ns#"
   xmlns:svg="http://www.w3.org/2000/svg"
   xmlns="http://www.w3.org/2000/svg"
   xmlns:sodipodi="http://sodipodi.sourceforge.net/DTD/sodipodi-0.dtd"
   xmlns:inkscape="http://www.inkscape.org/namespaces/inkscape"
   width="186.7036"
   height="107.44946"
   viewBox="0 0 149.36288 85.95957"
   version="1.1"
   id="svg5497"
   inkscape:version="0.48.4 r9939"
   sodipodi:docname="Master_transparent_fwb_lr_text.svg">
  <metadata
     id="metadata5572">
    <rdf:RDF>
      <cc:Work
         rdf:about="">
        <dc:format>image/svg+xml</dc:format>
        <dc:type
           rdf:resource="http://purl.org/dc/dcmitype/StillImage" />
        <dc:title></dc:title>
      </cc:Work>
    </rdf:RDF>
  </metadata>
  <defs
     id="defs5570" />
  <sodipodi:namedview
     pagecolor="#ffffff"
     bordercolor="#666666"
     borderopacity="1"
     objecttolerance="10"
     gridtolerance="10"
     guidetolerance="10"
     inkscape:pageopacity="0"
     inkscape:pageshadow="2"
     inkscape:window-width="1920"
     inkscape:window-height="1017"
     id="namedview5568"
     showgrid="false"
     inkscape:zoom="2.7958484"
     inkscape:cx="216.34926"
     inkscape:cy="20.71214"
     inkscape:window-x="-8"
     inkscape:window-y="-8"
     inkscape:window-maximized="1"
     inkscape:current-layer="svg5497"
     showguides="true"
     inkscape:guide-bbox="true"
     fit-margin-top="0"
     fit-margin-left="0"
     fit-margin-right="0"
     fit-margin-bottom="0" />
  <g
     id="g4363"
     transform="matrix(-0.21655941,0,0,0.26164808,129.86451,-8.266444)"
     style="fill:#ffffff;stroke:#ffffff">
    <path
       inkscape:connector-curvature="0"
       id="path5699"
       d="m 127.88832,256.19861 56.31505,-4.47646 -0.61885,5.59558 z"
       style="fill:#ffffff;stroke:#ffffff;stroke-width:0.82261682000000003px;stroke-linecap:butt;stroke-linejoin:miter;stroke-opacity:1" />
    <path
       d="m 126.90959,103.50729 52.32316,1.29883 -52.21639,0.27831 52.00281,1.76269 m 0.32036,-4.73141 -52.6435,0 m -0.21358,-1.20605 52.53672,-1.391604 0,0 m -52.6435,-5.009727 52.85708,1.484363 0.10676,-0.09276 -53.07062,0.742165 53.17742,1.855452 0,0 -52.7503,0.556637 m -4.06094,-7.448885 c -0.10975,0 -0.18659,0.05852 -0.18659,0.12969 l 0,17.216269 c 0,0.0711 0.077,0.1297 0.18659,0.1297 l 61.01538,0 c 0.10976,0 0.18659,-0.0585 0.18659,-0.1297 l 0,-17.216269 c 0,-0.07117 -0.077,-0.12969 -0.18659,-0.12969 z m 4.32893,2.042609 51.61116,0 c 0.0928,0 0.1866,0.04368 0.1866,0.09721 l 0,12.96895 c 0,0.0535 -0.0937,0.0972 -0.1866,0.0972 l -51.61116,0 c -0.0929,0 -0.1866,-0.0437 -0.1866,-0.0972 l 0,-12.96895 c 0,-0.05353 0.0937,-0.09721 0.1866,-0.09721 z m -8.33617,265.92987 C 100.73673,321.48475 86.481988,268.43906 83.513734,239.92228 l 18.095806,15.29799 c -11.770467,12.95505 7.25463,66.42365 17.01827,104.35751 z m -34.526769,-120.49191 65.469119,-0.0927 c -16.41547,4.69304 -34.80611,4.47475 -48.27004,16.50695 z m 79.083749,-0.0927 67.45428,-0.83934 c -5.05392,6.62143 -11.16648,12.77173 -16.2204,19.39316 -4.69491,-12.65106 -30.19566,-15.69103 -51.23388,-18.55382 z m 51.32003,18.7278 16.76401,-18.6858 c 2.4622,35.17079 -1.53736,75.01329 -4.65226,115.22688 -3.22945,-30.69812 -0.5446,-63.87646 -12.11175,-96.54108 z m -48.571,-150.54009 c -2.48306,-0.002 -4.95064,0.0168 -7.38903,0.0324 -30.34451,0.19406 -56.6678,1.69063 -65.232342,2.91801 -9.457879,1.35541 -19.442032,4.75598 -30.339756,10.76422 -8.249345,4.54811 -18.420558,16.62427 -22.652192,26.71604 -5.101355,12.1659 -8.984432,55.45034 1.306138,80.89379 4.069341,10.06146 9.89748,18.64568 22.463863,24.6998 8.468674,4.19705 23.144604,7.50759 23.144604,7.50759 l -0.528097,-3.70347 C 75.907681,253.9452 75.899948,254.59858 66.592585,249.80681 55.438267,244.06415 49.22331,235.49255 45.582396,226.00879 c -9.88924,-25.75922 -6.353798,-68.12135 0.970276,-81.44498 3.962651,-7.20868 14.585629,-17.17436 22.241691,-21.46361 10.113979,-5.66626 19.360287,-7.83242 28.137981,-9.11068 7.948596,-1.15752 32.405366,-2.54046 60.567566,-2.72347 36.20854,-0.2353 78.59185,1.52638 100.01297,8.33254 7.67326,2.43805 16.57935,8.31877 21.01019,14.36311 4.11229,5.60978 6.84087,10.32929 8.32197,16.0815 6.23985,24.23401 7.88898,50.32151 1.56736,74.53901 -1.63234,6.25328 -4.99457,12.40739 -9.88933,17.15143 -6.78258,6.57378 -12.98443,10.03083 -21.01019,12.25565 -14.05366,3.89579 -25.95911,4.15325 -25.95911,4.15325 l -0.12988,5.00156 c 0,0 30.40138,-3.00347 36.12762,-5.68561 8.64766,-2.35908 14.07518,-4.92852 21.38337,-11.89901 5.27407,-5.03039 8.9142,-11.55829 10.67303,-18.18895 6.81147,-25.67908 5.00673,-53.31671 -1.71665,-79.0133 -1.59588,-6.09938 -4.52542,-11.13826 -8.95638,-17.08658 -4.7742,-6.40913 -14.3843,-12.62091 -22.65219,-15.2061 -21.6385,-6.76586 -63.10305,-8.85591 -100.34884,-8.88373 z m -5.12821,199.3718 C 190.49129,283.42749 216.70961,261.688 216.70961,261.688 l 1.41425,4.4215 c 0,0 -42.63501,34.29846 -51.36516,61.24981 C 126.46703,294.8039 97.462426,263.11686 97.462426,263.11686 l 2.310331,-3.10225 c 0,0 28.119623,30.99829 61.032873,46.53807 z m 23.85692,-207.263626 -0.30203,3.411216 99.97028,0.7872 z m -128.662665,5.772826 68.559685,-2.0992 0.30202,-5.248036 -76.412331,-2.886411 z M 154.36516,32.155526 c -14.45225,0 -31.19213,1.211631 -41.94573,5.738758 C 96.668722,44.52512 85.6249,58.088992 85.6249,70.024848 c 0,10.234583 4.054086,15.762881 16.1215,22.371431 11.61435,6.360438 31.75338,-1.459006 49.22281,-1.459006 17.88065,0 46.87007,8.377908 58.55237,1.750807 11.5902,-6.57485 19.60662,-11.958563 9.36689,-33.816526 -3.17965,-6.787338 -7.26959,-8.945447 -13.8824,-14.654908 -11.51193,-9.939332 -28.01665,-12.06112 -50.64091,-12.06112 z m -0.74636,5.446957 c 20.82592,0 36.01364,1.807587 46.61052,10.245467 6.08718,4.846982 9.83594,6.688156 12.76286,12.450188 9.4258,18.556065 2.04841,23.112149 -8.62053,28.693793 -10.75369,5.625999 -37.42822,-1.491428 -53.88759,-1.491428 -16.08085,0 -34.61322,6.631669 -45.30438,1.232049 C 94.071445,83.1223 90.327007,78.421577 90.327007,69.733047 c 0,-10.132807 10.168663,-21.638038 24.667373,-27.26721 9.89886,-3.843252 25.32093,-4.863354 38.62442,-4.863354 z m 8.87424,190.153387 -0.21356,2.59764 5.33909,0.18554 0,-3.15426 z m -20.07501,2.78318 4.91197,0 -0.21357,-2.41209 -5.12553,0.3711 z m -30.84553,-29.73557 -42.283509,-3.67361 2.416197,5.24802 38.055152,0 z m -56.037511,-18.36808 68.257651,3.6736 8.45671,19.9425 -13.28911,-16.79367 -59.800951,-2.09921 z m 132.918841,18.36808 42.88756,-1.57441 -3.62432,5.24803 -38.05515,-2.09921 z m -17.10823,5.77284 4.22836,-19.4177 67.65361,-4.19843 -3.02026,7.34723 -61.00904,0.52481 z"
       style="fill:#ffffff;stroke:#ffffff;stroke-width:1.11309730999999990px;stroke-linecap:butt;stroke-linejoin:miter;stroke-opacity:1"
       id="path4185"
       inkscape:connector-curvature="0" />
    <path
       inkscape:connector-curvature="0"
       d="m 202.331,89.973816 c 5.32958,-4.59741 10.42288,-9.400108 14.95024,-14.694475 m -17.51746,15.088077 c 7.0805,-6.925326 12.58553,-13.489846 17.66847,-20.073703 m -20.83972,20.992108 c 7.20614,-8.175892 13.78454,-16.533579 19.78264,-25.059327 M 194.02531,91.548224 C 201.41378,82.054813 208.23156,72.396131 214.412,62.552877 M 191.60911,91.285823 C 199.13244,80.694395 206.13312,69.95161 212.44885,59.010459 M 189.19291,91.679425 210.18366,55.861642 M 186.92773,91.548224 207.91846,53.63123 m -23.25592,37.523392 20.38668,-39.229 M 182.69937,90.498619 202.63302,49.564011 M 180.43418,90.367418 199.9148,47.333599 m -21.29276,42.771418 18.12149,-45.13303 m -20.23568,45.001829 16.91342,-46.969839 m -19.3296,46.838638 15.40327,-48.150645 m -17.51745,48.413047 14.34619,-49.462652 m -16.46037,48.937848 12.98708,-49.593852 m -15.55429,49.06905 12.08101,-50.249856 m -14.3462,49.856254 10.41987,-49.856254 m -12.83607,49.462653 8.90975,-50.249857 0,0 m -11.32595,50.512257 7.39962,-50.512257 m -9.6648,50.381057 5.43644,-50.643458 m -7.55063,50.905859 3.92633,-51.430662 m -6.04049,50.905859 2.56721,-50.512256 m -5.13443,50.118654 2.2652,-50.249855 m -4.53039,50.512257 1.66113,-50.512257 m -4.07732,50.381057 0.90607,-50.643459 m -3.17126,51.03706 0,-50.774658 m -2.11418,50.774659 -1.81214,-50.90586 m 0,51.16826 -4.07735,-50.512257 m 2.11418,50.774659 -6.49354,-50.249855 m 4.98341,50.118654 -8.90973,-49.856254 m 6.94657,50.512258 -11.02391,-49.856255 m 9.51379,49.987456 -13.74214,-48.544247 m 11.93,48.544247 -16.00734,-47.625843 M 129.996,89.842615 112.02552,43.266378 m 16.00733,46.969839 -19.48061,-45.657831 m 17.97048,45.920233 C 118.91417,76.466742 111.93249,61.890244 105.53199,46.808796 m 19.02757,43.689823 C 116.56958,77.385544 109.04846,63.763313 102.66275,48.908007 M 122.44538,90.62982 C 113.4204,79.028149 106.26946,65.255571 99.642492,50.876017 M 120.18019,91.023421 C 110.9662,79.552271 103.27286,66.980157 96.471231,53.762432 M 118.21704,90.892221 C 109.06201,80.33924 101.04635,68.99434 93.904019,57.042448 M 115.95185,90.892221 C 107.36141,81.663793 99.375835,71.647106 92.393901,60.322465 M 113.23362,90.62982 C 104.94259,82.284022 97.317666,73.475243 91.034787,63.733682 M 110.81743,90.367418 C 102.97243,83.494599 95.668236,76.151921 89.826677,67.538501 M 107.34414,90.105017 C 100.55362,84.302047 94.214901,78.201097 89.22264,71.21212 l 0,0"
       style="fill:#ffffff;stroke:#ffffff;stroke-width:1.11309719000000000px;stroke-linecap:butt;stroke-linejoin:miter;stroke-opacity:1"
       id="path4353" />
  </g>
  <g
     transform="matrix(0.8,0,0,0.77697246,-16.4,-3.431101)"
     style="font-size:64px;font-style:normal;font-variant:normal;font-weight:normal;font-stretch:normal;line-height:125%;letter-spacing:0px;word-spacing:0px;fill:#ffffff;fill-opacity:1;stroke:none;font-family:Impact;-inkscape-font-specification:Impact"
     id="flowRoot2985">
    <path
       d="m 33.65625,31.780338 0,50.59375 -13.15625,0 0,-50.59375 z"
       id="path3023"
       inkscape:connector-curvature="0"
       style="fill:#ffffff" />
    <path
       d="m 66.875,47.092838 -12.21875,0 0,-3.75 c -1.8e-5,-1.74996 -0.156268,-2.864542 -0.46875,-3.34375 -0.312517,-0.479124 -0.83335,-0.718707 -1.5625,-0.71875 -0.791682,4.3e-5 -1.39064,0.322959 -1.796875,0.96875 -0.406264,0.645874 -0.609389,1.62504 -0.609375,2.9375 -1.4e-5,1.687537 0.229153,2.958369 0.6875,3.8125 0.437485,0.854201 1.677067,1.88545 3.71875,3.09375 5.854143,3.479195 9.541639,6.333359 11.0625,8.5625 1.520803,2.229188 2.281218,5.822934 2.28125,10.78125 -3.2e-5,3.604176 -0.421906,6.260423 -1.265625,7.96875 -0.843779,1.708336 -2.473986,3.140626 -4.890625,4.296875 -2.41669,1.156249 -5.229187,1.734374 -8.4375,1.734375 -3.520847,-10e-7 -6.526052,-0.666667 -9.015625,-2 -2.489589,-1.333331 -4.119796,-3.031246 -4.890625,-5.09375 -0.770836,-2.062492 -1.156252,-4.989573 -1.15625,-8.78125 l 0,-3.3125 12.21875,0 0,6.15625 c -1.4e-5,1.895843 0.171861,3.114592 0.515625,3.65625 0.343735,0.541674 0.953109,0.812507 1.828125,0.8125 0.874983,7e-6 1.526024,-0.343743 1.953125,-1.03125 0.427064,-0.687491 0.640606,-1.708324 0.640625,-3.0625 -1.9e-5,-2.979153 -0.406269,-4.927067 -1.21875,-5.84375 -0.83335,-0.916649 -2.885432,-2.447897 -6.15625,-4.59375 -3.270842,-2.166643 -5.437506,-3.739558 -6.5,-4.71875 -1.062504,-0.979139 -1.942712,-2.333305 -2.640625,-4.0625 -0.697919,-1.729135 -1.046877,-3.937466 -1.046875,-6.625 -2e-6,-3.874959 0.49479,-6.70829 1.484375,-8.5 0.989579,-1.791619 2.588536,-3.19266 4.796875,-4.203125 2.208323,-1.010366 4.874987,-1.515574 8,-1.515625 3.416647,5.1e-5 6.328103,0.552134 8.734375,1.65625 2.406223,1.104215 3.999971,2.494839 4.78125,4.171875 0.78122,1.677127 1.171844,4.526083 1.171875,8.546875 z"
       id="path3025"
       inkscape:connector-curvature="0"
       style="fill:#ffffff" />
    <path
       d="m 98.625,31.780338 0,10.125 -7.8125,0 0,40.46875 -13.15625,0 0,-40.46875 -7.78125,0 0,-10.125 z"
       id="path3027"
       inkscape:connector-curvature="0"
       style="fill:#ffffff" />
  </g>
  <g
     transform="matrix(0.8,0,0,0.77697246,108.40008,-3.434889)"
     style="font-size:64px;font-style:normal;font-variant:normal;font-weight:normal;font-stretch:normal;line-height:125%;letter-spacing:0px;word-spacing:0px;fill:#ffffff;fill-opacity:1;stroke:none;font-family:Impact;-inkscape-font-specification:Impact"
     id="flowRoot2985-1">
    <path
       d="m 20.5,31.780338 13.125,0 c 4.145813,5e-5 7.286435,0.322967 9.421875,0.96875 2.135389,0.645882 3.859346,1.953172 5.171875,3.921875 1.312468,1.968793 1.968718,5.140665 1.96875,9.515625 -3.2e-5,2.958366 -0.463574,5.020864 -1.390625,6.1875 -0.927113,1.166695 -2.755237,2.062528 -5.484375,2.6875 3.041638,0.687526 5.104136,1.82815 6.1875,3.421875 1.083301,1.593772 1.624967,4.036478 1.625,7.328125 l 0,4.6875 c -3.3e-5,3.416675 -0.390658,5.947922 -1.171875,7.59375 -0.781281,1.645836 -2.026072,2.770834 -3.734375,3.375 -1.70836,0.604167 -5.208356,0.90625 -10.5,0.90625 l -15.21875,0 z m 13.15625,8.65625 0,11.25 c 0.562484,-0.0208 0.999983,-0.03122 1.3125,-0.03125 1.291648,3e-5 2.114564,-0.317678 2.46875,-0.953125 0.354147,-0.635385 0.53123,-2.453091 0.53125,-5.453125 -2e-5,-1.583295 -0.145853,-2.692669 -0.4375,-3.328125 -0.291686,-0.635376 -0.671894,-1.036417 -1.140625,-1.203125 -0.468768,-0.166625 -1.380225,-0.260375 -2.734375,-0.28125 z m 0,19.125 0,14.15625 c 1.854149,-0.06249 3.03644,-0.354158 3.546875,-0.875 0.510397,-0.520824 0.765605,-1.802072 0.765625,-3.84375 l 0,-4.71875 c -2e-5,-2.166647 -0.229187,-3.479146 -0.6875,-3.9375 -0.458352,-0.458311 -1.666684,-0.718728 -3.625,-0.78125 z"
       id="path3054"
       inkscape:connector-curvature="0"
       style="fill:#ffffff" />
  </g>
  <g
     transform="matrix(0.9280258,0,0,0.8,86.17918,-43.741632)"
     style="font-size:20px;font-style:normal;font-variant:normal;font-weight:normal;font-stretch:normal;line-height:125%;letter-spacing:0px;word-spacing:0px;fill:#ffffff;fill-opacity:1;stroke:none;font-family:Impact;-inkscape-font-specification:Impact"
     id="flowRoot3032">
    <path
       d="m 29.509766,144.56807 -3.701172,0 0,-0.86914 c -1e-6,-1.00259 0.115559,-1.7757 0.346679,-2.31933 0.231119,-0.54361 0.694986,-1.02375 1.391602,-1.44043 0.696612,-0.41666 1.601559,-0.62499 2.714844,-0.625 1.334629,1e-5 2.340487,0.23601 3.017578,0.70801 0.677075,0.47201 1.083975,1.05144 1.220703,1.73828 0.136709,0.68686 0.205069,2.10124 0.205078,4.24316 l 0,6.50391 -3.837891,0 0,-1.15235 c -0.24089,0.46224 -0.551762,0.80892 -0.932617,1.04004 -0.380863,0.23112 -0.834964,0.34668 -1.362304,0.34668 -0.690107,0 -1.323245,-0.19368 -1.899414,-0.58105 -0.576173,-0.38737 -0.864259,-1.23535 -0.864258,-2.54395 l 0,-1.06445 c -1e-6,-0.97005 0.152994,-1.63085 0.458984,-1.98242 0.305988,-0.35156 1.064451,-0.76171 2.275391,-1.23047 1.295568,-0.50781 1.988927,-0.8496 2.080078,-1.02539 0.09114,-0.17577 0.136713,-0.53385 0.136719,-1.07422 -6e-6,-0.67707 -0.05046,-1.11815 -0.151368,-1.32324 -0.100916,-0.20507 -0.268559,-0.30761 -0.502929,-0.30762 -0.266932,1e-5 -0.432947,0.0863 -0.498047,0.25879 -0.06511,0.17254 -0.09766,0.62013 -0.09766,1.34277 z m 1.25,1.77735 c -0.631516,0.46224 -0.997726,0.84961 -1.098633,1.16211 -0.100916,0.3125 -0.151372,0.76172 -0.151367,1.34765 -5e-6,0.67058 0.04394,1.10352 0.131836,1.29883 0.08789,0.19532 0.262039,0.29297 0.52246,0.29297 0.247391,0 0.408524,-0.0765 0.483399,-0.22949 0.07486,-0.15299 0.112299,-0.55501 0.112305,-1.20606 z"
       id="path3043"
       inkscape:connector-curvature="0"
       style="fill:#ffffff" />
    <path
       d="m 44.119141,143.68917 -3.496094,0 0,-0.70313 c -5e-6,-0.59895 -0.03419,-0.97818 -0.102539,-1.13769 -0.06837,-0.1595 -0.239263,-0.23925 -0.512696,-0.23926 -0.221358,1e-5 -0.387374,0.0733 -0.498046,0.21973 -0.110681,0.14649 -0.16602,0.36622 -0.166016,0.65918 -4e-6,0.39714 0.02766,0.68848 0.08301,0.87402 0.05533,0.18556 0.22135,0.38901 0.498047,0.61035 0.276688,0.22136 0.844721,0.54363 1.704101,0.9668 1.145826,0.5599 1.897779,1.08724 2.25586,1.58203 0.358064,0.4948 0.5371,1.2142 0.537109,2.1582 -9e-6,1.05469 -0.136728,1.85059 -0.410156,2.3877 -0.273446,0.53711 -0.730802,0.95052 -1.372071,1.24023 -0.641282,0.28972 -1.414393,0.43457 -2.319336,0.43457 -1.002608,0 -1.860354,-0.15625 -2.573242,-0.46875 -0.712892,-0.3125 -1.2028,-0.73567 -1.469726,-1.26953 -0.266928,-0.53385 -0.400391,-1.34114 -0.400391,-2.42187 l 0,-0.625 3.496094,0 0,0.82031 c -4e-6,0.69662 0.04394,1.14909 0.131836,1.35742 0.08789,0.20834 0.26204,0.3125 0.522461,0.3125 0.279943,0 0.475255,-0.07 0.585937,-0.20996 0.110672,-0.13997 0.16601,-0.43457 0.166016,-0.88379 -6e-6,-0.61849 -0.07162,-1.00585 -0.214844,-1.16211 -0.149745,-0.15624 -0.914718,-0.61848 -2.294922,-1.38672 -1.158856,-0.65103 -1.865235,-1.24185 -2.11914,-1.77246 -0.253907,-0.53059 -0.38086,-1.16047 -0.38086,-1.88965 0,-1.03514 0.136718,-1.79849 0.410156,-2.29004 0.273437,-0.49152 0.737304,-0.87075 1.391602,-1.13769 0.654294,-0.26692 1.414384,-0.40038 2.280273,-0.40039 0.85937,1e-5 1.590164,0.10906 2.192383,0.32715 0.602207,0.21811 1.064446,0.50619 1.386719,0.86425 0.322257,0.35809 0.51757,0.69012 0.585938,0.9961 0.06835,0.306 0.10253,0.78451 0.102539,1.43554 z"
       id="path3045"
       inkscape:connector-curvature="0"
       style="fill:#ffffff" />
    <path
       d="m 49.636719,137.82003 0,2.04101 1.064453,0 0,2.05078 -1.064453,0 0,6.9336 c -5e-6,0.85287 0.04394,1.32813 0.131836,1.42578 0.08788,0.0977 0.454096,0.14649 1.098632,0.14648 l 0,2.08985 -1.591796,0 c -0.898441,0 -1.539717,-0.0374 -1.923829,-0.11231 -0.384116,-0.0749 -0.722658,-0.24739 -1.015625,-0.51758 -0.29297,-0.27018 -0.475261,-0.57942 -0.546875,-0.92773 -0.07162,-0.34831 -0.107422,-1.16699 -0.107421,-2.45605 l 0,-6.58204 -0.84961,0 0,-2.05078 0.84961,0 0,-2.04101 z"
       id="path3047"
       inkscape:connector-curvature="0"
       style="fill:#ffffff" />
    <path
       d="m 60.505859,146.25753 -5.107422,0 0,2.80273 c -4e-6,0.58594 0.04231,0.96355 0.126954,1.13281 0.08463,0.16928 0.247391,0.25391 0.488281,0.25391 0.299474,0 0.499669,-0.1123 0.600586,-0.33691 0.100905,-0.22461 0.151361,-0.65918 0.151367,-1.30371 l 0,-1.70899 3.740234,0 0,0.95703 c -9e-6,0.80079 -0.05047,1.41602 -0.151367,1.84571 -0.100921,0.42969 -0.336923,0.88867 -0.708008,1.37695 -0.371102,0.48828 -0.841479,0.85449 -1.411132,1.09863 -0.569669,0.24414 -1.284186,0.36621 -2.143555,0.36621 -0.833338,0 -1.569014,-0.12044 -2.207031,-0.36133 -0.638024,-0.24088 -1.134442,-0.57128 -1.489258,-0.99121 -0.354819,-0.41992 -0.600587,-0.88216 -0.737305,-1.38672 -0.136719,-0.50455 -0.205079,-1.2386 -0.205078,-2.20214 l 0,-3.7793 c -10e-7,-1.1328 0.152994,-2.02636 0.458984,-2.68066 0.305989,-0.65429 0.80729,-1.15559 1.503907,-1.50391 0.696611,-0.3483 1.497391,-0.52245 2.402343,-0.52246 1.106765,1e-5 2.01985,0.20997 2.739258,0.62988 0.719393,0.41993 1.22395,0.97657 1.513672,1.66992 0.289704,0.69337 0.434561,1.66831 0.43457,2.92481 z m -3.955078,-2.10938 0,-0.94726 c -5e-6,-0.67057 -0.03581,-1.10351 -0.107422,-1.29883 -0.07162,-0.1953 -0.218104,-0.29296 -0.439453,-0.29297 -0.273442,1e-5 -0.442713,0.083 -0.507812,0.24902 -0.06511,0.16603 -0.09766,0.61362 -0.09766,1.34278 l 0,0.94726 z"
       id="path3049"
       inkscape:connector-curvature="0"
       style="fill:#ffffff" />
    <path
       d="m 65.75,139.54854 -0.15625,1.69922 c 0.572912,-1.21743 1.402989,-1.86196 2.490234,-1.93359 l 0,4.56054 c -0.722662,1e-5 -1.253261,0.0977 -1.591797,0.29297 -0.338546,0.19532 -0.546879,0.46713 -0.625,0.81543 -0.07813,0.34832 -0.117192,1.15073 -0.117187,2.40723 l 0,5.11719 -3.945313,0 0,-12.95899 z"
       id="path3051"
       inkscape:connector-curvature="0"
       style="fill:#ffffff" />
  </g>
</svg>
