<?xml version="1.0" encoding="UTF-8" standalone="no"?>
<svg
   xmlns:dc="http://purl.org/dc/elements/1.1/"
   xmlns:cc="http://creativecommons.org/ns#"
   xmlns:rdf="http://www.w3.org/1999/02/22-rdf-syntax-ns#"
   xmlns:svg="http://www.w3.org/2000/svg"
   xmlns="http://www.w3.org/2000/svg"
   xmlns:sodipodi="http://sodipodi.sourceforge.net/DTD/sodipodi-0.dtd"
   xmlns:inkscape="http://www.inkscape.org/namespaces/inkscape"
   width="327pt"
   height="382pt"
   viewBox="0 0 327 382"
   version="1.1"
   id="svg5497"
   inkscape:version="0.48.4 r9939"
   sodipodi:docname="Master.svg">
  <metadata
     id="metadata5572">
    <rdf:RDF>
      <cc:Work
         rdf:about="">
        <dc:format>image/svg+xml</dc:format>
        <dc:type
           rdf:resource="http://purl.org/dc/dcmitype/StillImage" />
        <dc:title></dc:title>
      </cc:Work>
    </rdf:RDF>
  </metadata>
  <defs
     id="defs5570" />
  <sodipodi:namedview
     pagecolor="#ffffff"
     bordercolor="#666666"
     borderopacity="1"
     objecttolerance="10"
     gridtolerance="10"
     guidetolerance="10"
     inkscape:pageopacity="0"
     inkscape:pageshadow="2"
     inkscape:window-width="1920"
     inkscape:window-height="1017"
     id="namedview5568"
     showgrid="false"
     inkscape:zoom="1.3979242"
     inkscape:cx="290.43406"
     inkscape:cy="274.64656"
     inkscape:window-x="-8"
     inkscape:window-y="-8"
     inkscape:window-maximized="1"
     inkscape:current-layer="svg5497" />
  <g
     id="g4363"
     transform="matrix(1.0989681,0,0,1.0960736,-22.624841,-23.399385)">
    <path
       inkscape:connector-curvature="0"
       id="path5699"
       d="m 127.88832,256.19861 56.31505,-4.47646 -0.61885,5.59558 z"
       style="fill:#000000;stroke:#000000;stroke-width:0.82261682px;stroke-linecap:butt;stroke-linejoin:miter;stroke-opacity:1" />
    <path
       d="m 126.90959,103.50729 52.32316,1.29883 -52.21639,0.27831 52.00281,1.76269 m 0.32036,-4.73141 -52.6435,0 m -0.21358,-1.20605 52.53672,-1.391604 0,0 m -52.6435,-5.009727 52.85708,1.484363 0.10676,-0.09276 -53.07062,0.742165 53.17742,1.855452 0,0 -52.7503,0.556637 m -4.06094,-7.448885 c -0.10975,0 -0.18659,0.05852 -0.18659,0.12969 l 0,17.216269 c 0,0.0711 0.077,0.1297 0.18659,0.1297 l 61.01538,0 c 0.10976,0 0.18659,-0.0585 0.18659,-0.1297 l 0,-17.216269 c 0,-0.07117 -0.077,-0.12969 -0.18659,-0.12969 z m 4.32893,2.042609 51.61116,0 c 0.0928,0 0.1866,0.04368 0.1866,0.09721 l 0,12.96895 c 0,0.0535 -0.0937,0.0972 -0.1866,0.0972 l -51.61116,0 c -0.0929,0 -0.1866,-0.0437 -0.1866,-0.0972 l 0,-12.96895 c 0,-0.05353 0.0937,-0.09721 0.1866,-0.09721 z m -8.33617,265.92987 C 100.73673,321.48475 86.481988,268.43906 83.513734,239.92228 l 18.095806,15.29799 c -11.770467,12.95505 7.25463,66.42365 17.01827,104.35751 z m -34.526769,-120.49191 65.469119,-0.0927 c -16.41547,4.69304 -34.80611,4.47475 -48.27004,16.50695 z m 79.083749,-0.0927 67.45428,-0.83934 c -5.05392,6.62143 -11.16648,12.77173 -16.2204,19.39316 -4.69491,-12.65106 -30.19566,-15.69103 -51.23388,-18.55382 z m 51.32003,18.7278 16.76401,-18.6858 c 2.4622,35.17079 -1.53736,75.01329 -4.65226,115.22688 -3.22945,-30.69812 -0.5446,-63.87646 -12.11175,-96.54108 z m -48.571,-150.54009 c -2.48306,-0.002 -4.95064,0.0168 -7.38903,0.0324 -30.34451,0.19406 -56.6678,1.69063 -65.232342,2.91801 -9.457879,1.35541 -19.442032,4.75598 -30.339756,10.76422 -8.249345,4.54811 -18.420558,16.62427 -22.652192,26.71604 -5.101355,12.1659 -8.984432,55.45034 1.306138,80.89379 4.069341,10.06146 9.89748,18.64568 22.463863,24.6998 8.468674,4.19705 23.144604,7.50759 23.144604,7.50759 l -0.528097,-3.70347 C 75.907681,253.9452 75.899948,254.59858 66.592585,249.80681 55.438267,244.06415 49.22331,235.49255 45.582396,226.00879 c -9.88924,-25.75922 -6.353798,-68.12135 0.970276,-81.44498 3.962651,-7.20868 14.585629,-17.17436 22.241691,-21.46361 10.113979,-5.66626 19.360287,-7.83242 28.137981,-9.11068 7.948596,-1.15752 32.405366,-2.54046 60.567566,-2.72347 36.20854,-0.2353 78.59185,1.52638 100.01297,8.33254 7.67326,2.43805 16.57935,8.31877 21.01019,14.36311 4.11229,5.60978 6.84087,10.32929 8.32197,16.0815 6.23985,24.23401 7.88898,50.32151 1.56736,74.53901 -1.63234,6.25328 -4.99457,12.40739 -9.88933,17.15143 -6.78258,6.57378 -12.98443,10.03083 -21.01019,12.25565 -14.05366,3.89579 -25.95911,4.15325 -25.95911,4.15325 l -0.12988,5.00156 c 0,0 30.40138,-3.00347 36.12762,-5.68561 8.64766,-2.35908 14.07518,-4.92852 21.38337,-11.89901 5.27407,-5.03039 8.9142,-11.55829 10.67303,-18.18895 6.81147,-25.67908 5.00673,-53.31671 -1.71665,-79.0133 -1.59588,-6.09938 -4.52542,-11.13826 -8.95638,-17.08658 -4.7742,-6.40913 -14.3843,-12.62091 -22.65219,-15.2061 -21.6385,-6.76586 -63.10305,-8.85591 -100.34884,-8.88373 z m -5.12821,199.3718 C 190.49129,283.42749 216.70961,261.688 216.70961,261.688 l 1.41425,4.4215 c 0,0 -42.63501,34.29846 -51.36516,61.24981 C 126.46703,294.8039 97.462426,263.11686 97.462426,263.11686 l 2.310331,-3.10225 c 0,0 28.119623,30.99829 61.032873,46.53807 z m 23.85692,-207.263626 -0.30203,3.411216 99.97028,0.7872 z m -128.662665,5.772826 68.559685,-2.0992 0.30202,-5.248036 -76.412331,-2.886411 z M 154.36516,32.155526 c -14.45225,0 -31.19213,1.211631 -41.94573,5.738758 C 96.668722,44.52512 85.6249,58.088992 85.6249,70.024848 c 0,10.234583 4.054086,15.762881 16.1215,22.371431 11.61435,6.360438 31.75338,-1.459006 49.22281,-1.459006 17.88065,0 46.87007,8.377908 58.55237,1.750807 11.5902,-6.57485 19.60662,-11.958563 9.36689,-33.816526 -3.17965,-6.787338 -7.26959,-8.945447 -13.8824,-14.654908 -11.51193,-9.939332 -28.01665,-12.06112 -50.64091,-12.06112 z m -0.74636,5.446957 c 20.82592,0 36.01364,1.807587 46.61052,10.245467 6.08718,4.846982 9.83594,6.688156 12.76286,12.450188 9.4258,18.556065 2.04841,23.112149 -8.62053,28.693793 -10.75369,5.625999 -37.42822,-1.491428 -53.88759,-1.491428 -16.08085,0 -34.61322,6.631669 -45.30438,1.232049 C 94.071445,83.1223 90.327007,78.421577 90.327007,69.733047 c 0,-10.132807 10.168663,-21.638038 24.667373,-27.26721 9.89886,-3.843252 25.32093,-4.863354 38.62442,-4.863354 z m 8.87424,190.153387 -0.21356,2.59764 5.33909,0.18554 0,-3.15426 z m -20.07501,2.78318 4.91197,0 -0.21357,-2.41209 -5.12553,0.3711 z m -30.84553,-29.73557 -42.283509,-3.67361 2.416197,5.24802 38.055152,0 z m -56.037511,-18.36808 68.257651,3.6736 8.45671,19.9425 -13.28911,-16.79367 -59.800951,-2.09921 z m 132.918841,18.36808 42.88756,-1.57441 -3.62432,5.24803 -38.05515,-2.09921 z m -17.10823,5.77284 4.22836,-19.4177 67.65361,-4.19843 -3.02026,7.34723 -61.00904,0.52481 z"
       style="fill:#000000;stroke:#000000;stroke-width:1.11309731px;stroke-linecap:butt;stroke-linejoin:miter;stroke-opacity:1"
       id="path4185"
       inkscape:connector-curvature="0" />
    <path
       inkscape:connector-curvature="0"
       d="m 202.331,89.973816 c 5.32958,-4.59741 10.42288,-9.400108 14.95024,-14.694475 m -17.51746,15.088077 c 7.0805,-6.925326 12.58553,-13.489846 17.66847,-20.073703 m -20.83972,20.992108 c 7.20614,-8.175892 13.78454,-16.533579 19.78264,-25.059327 M 194.02531,91.548224 C 201.41378,82.054813 208.23156,72.396131 214.412,62.552877 M 191.60911,91.285823 C 199.13244,80.694395 206.13312,69.95161 212.44885,59.010459 M 189.19291,91.679425 210.18366,55.861642 M 186.92773,91.548224 207.91846,53.63123 m -23.25592,37.523392 20.38668,-39.229 M 182.69937,90.498619 202.63302,49.564011 M 180.43418,90.367418 199.9148,47.333599 m -21.29276,42.771418 18.12149,-45.13303 m -20.23568,45.001829 16.91342,-46.969839 m -19.3296,46.838638 15.40327,-48.150645 m -17.51745,48.413047 14.34619,-49.462652 m -16.46037,48.937848 12.98708,-49.593852 m -15.55429,49.06905 12.08101,-50.249856 m -14.3462,49.856254 10.41987,-49.856254 m -12.83607,49.462653 8.90975,-50.249857 0,0 m -11.32595,50.512257 7.39962,-50.512257 m -9.6648,50.381057 5.43644,-50.643458 m -7.55063,50.905859 3.92633,-51.430662 m -6.04049,50.905859 2.56721,-50.512256 m -5.13443,50.118654 2.2652,-50.249855 m -4.53039,50.512257 1.66113,-50.512257 m -4.07732,50.381057 0.90607,-50.643459 m -3.17126,51.03706 0,-50.774658 m -2.11418,50.774659 -1.81214,-50.90586 m 0,51.16826 -4.07735,-50.512257 m 2.11418,50.774659 -6.49354,-50.249855 m 4.98341,50.118654 -8.90973,-49.856254 m 6.94657,50.512258 -11.02391,-49.856255 m 9.51379,49.987456 -13.74214,-48.544247 m 11.93,48.544247 -16.00734,-47.625843 M 129.996,89.842615 112.02552,43.266378 m 16.00733,46.969839 -19.48061,-45.657831 m 17.97048,45.920233 C 118.91417,76.466742 111.93249,61.890244 105.53199,46.808796 m 19.02757,43.689823 C 116.56958,77.385544 109.04846,63.763313 102.66275,48.908007 M 122.44538,90.62982 C 113.4204,79.028149 106.26946,65.255571 99.642492,50.876017 M 120.18019,91.023421 C 110.9662,79.552271 103.27286,66.980157 96.471231,53.762432 M 118.21704,90.892221 C 109.06201,80.33924 101.04635,68.99434 93.904019,57.042448 M 115.95185,90.892221 C 107.36141,81.663793 99.375835,71.647106 92.393901,60.322465 M 113.23362,90.62982 C 104.94259,82.284022 97.317666,73.475243 91.034787,63.733682 M 110.81743,90.367418 C 102.97243,83.494599 95.668236,76.151921 89.826677,67.538501 M 107.34414,90.105017 C 100.55362,84.302047 94.214901,78.201097 89.22264,71.21212 l 0,0"
       style="fill:none;stroke:#000000;stroke-width:1.11309719px;stroke-linecap:butt;stroke-linejoin:miter;stroke-opacity:1"
       id="path4353" />
  </g>
</svg>
